<svg xmlns="http://www.w3.org/2000/svg" xmlns:xlink="http://www.w3.org/1999/xlink" viewBox="0 0 260.45 324.76"><defs><style>.cls-1{fill:url(#linear-gradient);}.cls-2{fill:url(#linear-gradient-2);}.cls-3{fill:url(#linear-gradient-3);}.cls-4{fill:url(#linear-gradient-4);}.cls-5{fill:#fff;}</style><linearGradient id="linear-gradient" x1="68.47" y1="128.53" x2="63.55" y2="123.6" gradientUnits="userSpaceOnUse"><stop offset="0" stop-opacity="0"/><stop offset="1" stop-color="#1d1d1b"/></linearGradient><linearGradient id="linear-gradient-2" x1="239.42" y1="290.66" x2="92.66" y2="143.9" gradientUnits="userSpaceOnUse"><stop offset="0.35" stop-opacity="0"/><stop offset="1" stop-color="#1d1d1b" stop-opacity="0.4"/></linearGradient><linearGradient id="linear-gradient-3" x1="225.84" y1="208.64" x2="34.5" y2="17.31" xlink:href="#linear-gradient-2"/><linearGradient id="linear-gradient-4" x1="147.83" y1="274.8" x2="-15.93" y2="111.03" xlink:href="#linear-gradient-2"/></defs><g id="Layer_2" data-name="Layer 2"><g id="Layer_1-2" data-name="Layer 1"><path class="cls-1" d="M68.5,128.49a67.33,67.33,0,0,1-4.93-4.92Z"/><path class="cls-2" d="M260.15,193.62l-100-100A95.92,95.92,0,0,1,135,122.15c-13.82,10.11-28.13,19.57-42.35,29.14s-28.63,19.29-39.58,33a62.23,62.23,0,0,0-12.56,25.31l100,100c17.58,13.82,36.76,19.3,58.3,11.85,19.79-6.85,33.05-21.36,43.23-39,11-19.1,16.45-39.92,18-61.75C260.7,212.08,260.38,203.36,260.15,193.62Z"/><path class="cls-3" d="M249.14,156c-2.54-14.41-11.2-28-23-38.17l-.05,0L132.22,23.71c-1-1.11-2.11-2.17-3.21-3.22l-.19-.19h0C116.26,8.43,99.54.49,82.61,0,57.45-.65,37.79,10.47,22.86,30.24c-17.27,22.88-17.29,47.48.51,67.2l4.93,4.92,93.58,93.36a68.88,68.88,0,0,0,8.19,8.2c15.43,13.12,32.71,24.08,49.12,36,13.5-8.88,47-30.43,57.91-42.64C247.63,185.44,251.92,171.75,249.14,156ZM141.61,66.36c-7,31-46,62-80,49-23-9-46-31-42-58,3-25,21-44,46-48C101.61,3.36,150.61,27.36,141.61,66.36Z"/><path class="cls-4" d="M64.88,150.09C52.91,141.85,41,134,29.53,125.65S8,107.13.53,94.57C-2.09,131,4.67,164.91,27,195.68l100,100c8-19.68,22-33.4,37.93-45.59Z"/><path class="cls-5" d="M160.15,93.62a96,96,0,0,1-25.1,28.53c-13.82,10.12-28.13,19.57-42.35,29.14s-28.64,19.29-39.59,33a62.23,62.23,0,0,0-12.56,25.31c17.59,13.82,36.76,19.3,58.3,11.85,19.8-6.85,33.05-21.35,43.23-39,11-19.1,16.45-39.92,18-61.75C160.7,112.08,160.38,103.36,160.15,93.62Z"/><path class="cls-5" d="M149.15,56C144,26.76,113.6.87,82.62,0,57.46-.65,37.8,10.47,22.87,30.24,3.65,55.7,5.8,83.29,30.08,103.92,45.51,117,62.79,128,79.2,139.91c13.5-8.88,47-30.43,57.91-42.64C147.64,85.44,151.93,71.75,149.15,56ZM126,75.48c-6.29,24.06-26.88,36.2-45.88,36.15s-39.31-11.95-45.85-36c-7.14-.36-11.67-3.48-12-10.64-.25-6,3.45-9.15,12-10.75,4.86-16.93,15.28-28.34,32.35-34A7.26,7.26,0,0,1,74.9,24.4a8.53,8.53,0,0,1-2.08,10.2l-.34.29c-1.28,1.09-4,1.73-2.83,3.84.75,1.38,3,2.39,4.72,2.72C84.1,43.32,93.65,37,96.18,27.12c.26-1,.37-2.06.55-3.09.27-1.5,1.12-2.05,2.57-1.49l.66.27c10.58,5.24,20.72,15.22,26.3,31.48,8.2,1.4,11.9,4.82,11.69,11C137.75,71.3,133.74,74.77,126,75.48Z"/><path class="cls-5" d="M27,195.68C4.68,164.91-2.09,131,.53,94.58,8,107.14,18,117.21,29.53,125.66s23.38,16.19,35.35,24.43C49,162.28,35,176,27,195.68Z"/><path class="cls-5" d="M80.29,95.5A7.21,7.21,0,0,1,73,88.12a7.36,7.36,0,0,1,7.32-7.44A7.45,7.45,0,0,1,87.8,88,7.3,7.3,0,0,1,80.29,95.5Z"/><path class="cls-5" d="M97.34,70.42a9.32,9.32,0,0,1-6.42-2.59c-.9-.91-1.48-2-.44-3.13.89-1,1.89-.68,3-.07,4.42,2.56,5.25,2.48,9.1-.86.93-.81,1.81-1.27,2.84-.29s.8,1.9.18,3C104.17,68.78,101,70.41,97.34,70.42Z"/><path class="cls-5" d="M62.47,70.42A9.34,9.34,0,0,1,56,67.83c-.9-.91-1.47-2-.43-3.13.89-1,1.89-.68,2.94-.07,4.43,2.56,5.26,2.48,9.11-.86.93-.81,1.81-1.27,2.84-.29s.8,1.9.18,3C69.29,68.78,66.11,70.41,62.47,70.42Z"/></g></g></svg>