<svg xmlns="http://www.w3.org/2000/svg" xmlns:xlink="http://www.w3.org/1999/xlink" viewBox="0 0 355.4 355.4"><defs><style>.cls-1{fill:#c9f;}.cls-2{fill:url(#linear-gradient);}.cls-3{fill:#fff;}</style><linearGradient id="linear-gradient" x1="355.62" y1="355.19" x2="107.64" y2="107.21" gradientUnits="userSpaceOnUse"><stop offset="0.35" stop-opacity="0"/><stop offset="1" stop-color="#1d1d1b" stop-opacity="0.4"/></linearGradient></defs><g id="Layer_2" data-name="Layer 2"><g id="Layer_1-2" data-name="Layer 1"><rect class="cls-1" width="355.4" height="355.4"/><path class="cls-2" d="M322.57,184.43l-.05-.05L228.68,90.29c-1-1.1-2.11-2.17-3.21-3.22l-.19-.19h0C212.72,75,196,67.07,179.07,66.61c-25.16-.68-44.82,10.44-59.75,30.21-17.27,22.88-17.29,47.48.51,67.2l4.93,4.92L180,224.08c-2.21,1.54-4.41,3.09-6.58,4.69l-12.1-12.1c-12-8.24-23.87-16-35.35-24.44s-21.58-18.52-29-31.08c-2.62,36.44,4.14,70.34,26.42,101.11l13.66,13.66-.06.23,79.26,79.25H355.4V215.52C342.71,202.37,328.61,189.62,322.57,184.43Zm-84.5-51.49c-7,31-46,62-80,49-23-9-46-31-42-58,3-25,21-44,46-48C198.07,69.94,247.07,93.94,238.07,132.94Z"/><path class="cls-3" d="M256.61,160.2a96,96,0,0,1-25.1,28.53c-13.83,10.11-28.14,19.57-42.35,29.14s-28.64,19.29-39.59,33A62.23,62.23,0,0,0,137,276.15c17.58,13.82,36.76,19.3,58.3,11.85,19.8-6.85,33.05-21.36,43.23-39,11-19.1,16.45-39.92,18-61.75C257.16,178.66,256.84,169.94,256.61,160.2Z"/><path class="cls-3" d="M245.6,122.6c-5.16-29.26-35.55-55.15-66.53-56-25.16-.68-44.82,10.44-59.75,30.21-19.22,25.46-17.07,53.05,7.21,73.68,15.43,13.12,32.71,24.08,49.12,36,13.5-8.88,47-30.43,57.91-42.64C244.09,152,248.38,138.33,245.6,122.6Zm-23.17,19.46c-6.29,24.06-26.88,36.2-45.88,36.15s-39.31-12-45.85-36.05c-7.14-.36-11.67-3.48-12-10.64-.25-6,3.45-9.15,12-10.75,4.86-16.93,15.28-28.34,32.35-34A7.26,7.26,0,0,1,171.35,91a8.53,8.53,0,0,1-2.08,10.2l-.34.29c-1.28,1.09-4,1.73-2.83,3.84.75,1.38,3,2.39,4.72,2.72,9.73,1.87,19.28-4.5,21.81-14.33.26-1,.37-2.06.55-3.09.27-1.5,1.12-2,2.57-1.49l.66.27c10.58,5.24,20.72,15.22,26.3,31.48,8.2,1.4,11.9,4.82,11.69,11C234.2,137.88,230.19,141.35,222.43,142.06Z"/><path class="cls-3" d="M123.41,262.26c-22.28-30.77-29-64.67-26.42-101.1,7.42,12.55,17.43,22.63,29,31.07s23.38,16.2,35.35,24.44C145.44,228.86,131.45,242.59,123.41,262.26Z"/><path class="cls-3" d="M176.75,162.08a7.21,7.21,0,0,1-7.32-7.38,7.36,7.36,0,0,1,7.32-7.44,7.45,7.45,0,0,1,7.51,7.29A7.31,7.31,0,0,1,176.75,162.08Z"/><path class="cls-3" d="M193.8,137a9.26,9.26,0,0,1-6.42-2.58c-.9-.91-1.48-2-.44-3.13.89-1,1.89-.68,2.95-.07,4.42,2.56,5.25,2.48,9.1-.86.93-.81,1.81-1.27,2.84-.29s.8,1.9.18,2.95C200.63,135.36,197.44,137,193.8,137Z"/><path class="cls-3" d="M158.92,137a9.28,9.28,0,0,1-6.42-2.58c-.9-.91-1.48-2-.44-3.13.89-1,1.9-.68,2.95-.07,4.43,2.56,5.26,2.48,9.11-.86.92-.81,1.81-1.27,2.84-.29s.8,1.9.17,2.95C165.75,135.36,162.57,137,158.92,137Z"/></g></g></svg>